<svg width="24" height="24" viewBox="0 0 24 24" fill="none" xmlns="http://www.w3.org/2000/svg">
<g id="basil:location-solid">
<path id="Vector" d="M8.75 10.0001C8.75 9.13811 9.09241 8.31146 9.7019 7.70196C10.3114 7.09247 11.138 6.75006 12 6.75006C12.862 6.75006 13.6886 7.09247 14.2981 7.70196C14.9076 8.31146 15.25 9.13811 15.25 10.0001C15.25 10.862 14.9076 11.6887 14.2981 12.2982C13.6886 12.9077 12.862 13.2501 12 13.2501C11.138 13.2501 10.3114 12.9077 9.7019 12.2982C9.09241 11.6887 8.75 10.862 8.75 10.0001Z" fill="url(#paint0_linear_617_1960)"/>
<path id="Vector_2" fill-rule="evenodd" clip-rule="evenodd" d="M3.77334 8.87706C3.93968 6.86681 4.85557 4.99253 6.33931 3.62605C7.82305 2.25956 9.76622 1.50072 11.7833 1.50006H12.2153C14.2325 1.50072 16.1756 2.25956 17.6594 3.62605C19.1431 4.99253 20.059 6.86681 20.2253 8.87706C20.4099 11.1215 19.717 13.35 18.2923 15.0941L13.4993 20.9561C13.3177 21.1784 13.0889 21.3576 12.8294 21.4806C12.57 21.6037 12.2865 21.6675 11.9993 21.6675C11.7122 21.6675 11.4287 21.6037 11.1693 21.4806C10.9098 21.3576 10.681 21.1784 10.4993 20.9561L5.70734 15.0941C4.2823 13.3502 3.58904 11.1216 3.77334 8.87706ZM11.9993 5.25006C10.7396 5.25006 9.53138 5.75051 8.64058 6.6413C7.74979 7.5321 7.24934 8.74028 7.24934 10.0001C7.24934 11.2598 7.74979 12.468 8.64058 13.3588C9.53138 14.2496 10.7396 14.7501 11.9993 14.7501C13.2591 14.7501 14.4673 14.2496 15.3581 13.3588C16.2489 12.468 16.7493 11.2598 16.7493 10.0001C16.7493 8.74028 16.2489 7.5321 15.3581 6.6413C14.4673 5.75051 13.2591 5.25006 11.9993 5.25006Z" fill="url(#paint1_linear_617_1960)"/>
</g>
<defs>
<linearGradient id="paint0_linear_617_1960" x1="12" y1="6.75006" x2="12" y2="13.2501" gradientUnits="userSpaceOnUse">
<stop offset="0.48" stop-color="#F15704"/>
<stop offset="1" stop-color="#8B3202"/>
</linearGradient>
<linearGradient id="paint1_linear_617_1960" x1="11.9994" y1="1.50006" x2="11.9994" y2="21.6675" gradientUnits="userSpaceOnUse">
<stop offset="0.48" stop-color="#F15704"/>
<stop offset="1" stop-color="#8B3202"/>
</linearGradient>
</defs>
</svg>
