<svg width="28" height="28" viewBox="0 0 28 28" fill="none" xmlns="http://www.w3.org/2000/svg">
<g id="ic:round-read-more">
<path id="Vector" d="M16.333 10.5H24.4997C25.1413 10.5 25.6663 9.97496 25.6663 9.33329C25.6663 8.69163 25.1413 8.16663 24.4997 8.16663H16.333C15.6913 8.16663 15.1663 8.69163 15.1663 9.33329C15.1663 9.97496 15.6913 10.5 16.333 10.5ZM24.4997 17.5H16.333C15.6913 17.5 15.1663 18.025 15.1663 18.6666C15.1663 19.3083 15.6913 19.8333 16.333 19.8333H24.4997C25.1413 19.8333 25.6663 19.3083 25.6663 18.6666C25.6663 18.025 25.1413 17.5 24.4997 17.5ZM24.4997 12.8333H19.833C19.1913 12.8333 18.6663 13.3583 18.6663 14C18.6663 14.6416 19.1913 15.1666 19.833 15.1666H24.4997C25.1413 15.1666 25.6663 14.6416 25.6663 14C25.6663 13.3583 25.1413 12.8333 24.4997 12.8333ZM10.3247 9.15829C10.2424 9.07767 10.1382 9.0232 10.025 9.00175C9.91186 8.98029 9.79488 8.99281 9.68884 9.03772C9.58279 9.08264 9.4924 9.15794 9.42908 9.25414C9.36576 9.35034 9.33233 9.46313 9.33301 9.57829V12.8333H3.49967C2.85801 12.8333 2.33301 13.3583 2.33301 14C2.33301 14.6416 2.85801 15.1666 3.49967 15.1666H9.33301V18.4216C9.33301 18.9466 9.96301 19.2033 10.3247 18.83L14.7463 14.4083C14.9797 14.175 14.9797 13.8133 14.7463 13.58L10.3247 9.15829Z" fill="#F15704"/>
</g>
</svg>
